<?xml version="1.0" encoding="utf-8"?>
<!-- Generator: Adobe Illustrator 26.0.3, SVG Export Plug-In . SVG Version: 6.00 Build 0)  -->
<svg version="1.1" id="圖層_1" xmlns="http://www.w3.org/2000/svg" xmlns:xlink="http://www.w3.org/1999/xlink" x="0px" y="0px"
	 viewBox="0 0 400 300" style="enable-background:new 0 0 400 300;" xml:space="preserve">
<style type="text/css">
	.st0{fill:#CCCCCC;}
</style>
<g>
	<path class="st0" d="M171.78,137.67c0,0.05-0.01,0.1-0.04,0.14s-0.08,0.07-0.14,0.1s-0.16,0.04-0.27,0.06
		c-0.11,0.02-0.25,0.03-0.43,0.03c-0.16,0-0.3-0.01-0.42-0.03c-0.12-0.02-0.21-0.04-0.28-0.06s-0.12-0.06-0.14-0.1
		s-0.04-0.09-0.04-0.14v-12.74c0-0.05,0.02-0.1,0.05-0.14c0.03-0.04,0.08-0.07,0.15-0.1c0.07-0.02,0.16-0.04,0.28-0.06
		c0.11-0.02,0.25-0.03,0.41-0.03c0.17,0,0.31,0.01,0.43,0.03c0.11,0.02,0.2,0.04,0.27,0.06c0.07,0.02,0.12,0.06,0.14,0.1
		s0.04,0.09,0.04,0.14V137.67z"/>
	<path class="st0" d="M189.74,137.67c0,0.05-0.01,0.1-0.04,0.14c-0.03,0.04-0.08,0.07-0.15,0.1c-0.07,0.02-0.16,0.04-0.27,0.06
		c-0.11,0.02-0.25,0.03-0.43,0.03c-0.16,0-0.3-0.01-0.42-0.03c-0.12-0.02-0.21-0.04-0.27-0.06s-0.11-0.06-0.14-0.1
		c-0.03-0.04-0.04-0.09-0.04-0.14v-11.56h-0.02l-4.68,11.61c-0.02,0.05-0.05,0.09-0.09,0.12s-0.09,0.06-0.16,0.09
		c-0.07,0.02-0.16,0.04-0.26,0.05c-0.1,0.01-0.22,0.02-0.35,0.02c-0.14,0-0.27-0.01-0.37-0.02s-0.19-0.03-0.26-0.06
		c-0.07-0.02-0.12-0.05-0.16-0.09s-0.06-0.07-0.08-0.11l-4.47-11.61h-0.01v11.56c0,0.05-0.01,0.1-0.04,0.14
		c-0.03,0.04-0.08,0.07-0.15,0.1c-0.07,0.02-0.16,0.04-0.27,0.06c-0.11,0.02-0.26,0.03-0.43,0.03c-0.17,0-0.31-0.01-0.42-0.03
		c-0.11-0.02-0.2-0.04-0.27-0.06s-0.11-0.06-0.14-0.1c-0.02-0.04-0.04-0.09-0.04-0.14v-12.2c0-0.29,0.08-0.49,0.23-0.62
		s0.32-0.18,0.51-0.18h1.08c0.22,0,0.42,0.02,0.58,0.06s0.31,0.11,0.44,0.19s0.23,0.2,0.31,0.34s0.16,0.3,0.22,0.48l3.79,9.61h0.05
		l3.95-9.58c0.08-0.21,0.16-0.38,0.25-0.52s0.19-0.26,0.3-0.34c0.11-0.09,0.23-0.15,0.36-0.18s0.28-0.06,0.46-0.06h1.14
		c0.1,0,0.2,0.02,0.3,0.05c0.09,0.03,0.17,0.08,0.24,0.14c0.07,0.07,0.12,0.15,0.16,0.25c0.04,0.1,0.06,0.22,0.06,0.36V137.67z"/>
	<path class="st0" d="M203.2,137.31c0.05,0.15,0.08,0.27,0.09,0.36c0,0.09-0.02,0.16-0.08,0.21s-0.15,0.08-0.27,0.09
		c-0.13,0.01-0.3,0.02-0.51,0.02s-0.38,0-0.51-0.02c-0.13-0.01-0.22-0.03-0.29-0.05c-0.06-0.02-0.11-0.06-0.14-0.1
		c-0.03-0.04-0.06-0.09-0.09-0.15l-1.14-3.23h-5.52l-1.09,3.19c-0.02,0.06-0.05,0.11-0.08,0.16c-0.03,0.04-0.08,0.08-0.15,0.11
		c-0.06,0.03-0.16,0.05-0.28,0.07c-0.12,0.01-0.28,0.02-0.47,0.02c-0.2,0-0.36-0.01-0.49-0.03c-0.13-0.02-0.21-0.05-0.27-0.1
		c-0.05-0.05-0.08-0.12-0.07-0.21c0-0.09,0.03-0.21,0.09-0.36l4.45-12.33c0.03-0.08,0.06-0.14,0.11-0.18s0.11-0.09,0.2-0.11
		c0.08-0.03,0.19-0.05,0.33-0.06c0.13-0.01,0.3-0.02,0.51-0.02c0.22,0,0.4,0,0.54,0.02c0.14,0.01,0.26,0.03,0.35,0.06
		s0.16,0.07,0.21,0.12c0.05,0.05,0.09,0.11,0.11,0.19L203.2,137.31z M197.49,126.43h-0.01l-2.29,6.61h4.61L197.49,126.43z"/>
	<path class="st0" d="M215.23,126.47c0,0.13-0.01,0.24-0.02,0.34s-0.03,0.18-0.06,0.25s-0.06,0.11-0.1,0.14s-0.08,0.04-0.13,0.04
		c-0.08,0-0.22-0.06-0.41-0.19s-0.45-0.27-0.77-0.43s-0.71-0.3-1.15-0.43c-0.45-0.13-0.98-0.19-1.59-0.19
		c-0.73,0-1.39,0.13-1.97,0.4s-1.07,0.64-1.48,1.11s-0.71,1.03-0.93,1.68c-0.22,0.65-0.32,1.35-0.32,2.11c0,0.85,0.12,1.6,0.35,2.26
		c0.24,0.66,0.56,1.21,0.98,1.66s0.91,0.79,1.49,1.03c0.58,0.23,1.21,0.35,1.9,0.35c0.41,0,0.83-0.05,1.25-0.15
		c0.42-0.1,0.81-0.25,1.17-0.45v-3.87h-3.08c-0.12,0-0.2-0.06-0.26-0.17c-0.06-0.12-0.09-0.3-0.09-0.54c0-0.13,0.01-0.24,0.02-0.33
		c0.01-0.09,0.04-0.17,0.07-0.23c0.03-0.06,0.07-0.1,0.11-0.13s0.09-0.04,0.15-0.04h4.21c0.08,0,0.15,0.01,0.23,0.04
		s0.14,0.07,0.21,0.12s0.11,0.13,0.14,0.23s0.05,0.21,0.05,0.33v5.06c0,0.18-0.03,0.33-0.09,0.46s-0.19,0.24-0.39,0.34
		s-0.45,0.21-0.77,0.32s-0.64,0.22-0.97,0.3s-0.67,0.14-1.01,0.18s-0.68,0.06-1.02,0.06c-1.03,0-1.94-0.16-2.75-0.48
		c-0.81-0.32-1.49-0.77-2.05-1.36c-0.56-0.59-0.98-1.29-1.28-2.11s-0.44-1.74-0.44-2.75c0-1.05,0.16-2.01,0.48-2.86
		c0.32-0.85,0.77-1.58,1.34-2.18c0.58-0.6,1.27-1.07,2.08-1.4c0.81-0.33,1.71-0.5,2.69-0.5c0.51,0,0.98,0.04,1.43,0.13
		s0.84,0.19,1.18,0.31c0.35,0.12,0.64,0.25,0.87,0.39c0.24,0.14,0.4,0.25,0.49,0.34s0.15,0.19,0.18,0.31
		S215.23,126.26,215.23,126.47z"/>
	<path class="st0" d="M225.89,137.21c0,0.12-0.01,0.23-0.02,0.32c-0.01,0.09-0.04,0.17-0.07,0.23s-0.07,0.11-0.12,0.13
		c-0.04,0.03-0.09,0.04-0.15,0.04h-6.37c-0.16,0-0.31-0.05-0.45-0.16c-0.14-0.11-0.21-0.29-0.21-0.56v-11.83
		c0-0.27,0.07-0.45,0.21-0.56c0.14-0.11,0.29-0.16,0.45-0.16h6.3c0.05,0,0.1,0.01,0.15,0.04c0.04,0.03,0.08,0.07,0.11,0.13
		s0.05,0.14,0.07,0.23c0.02,0.09,0.03,0.21,0.03,0.34c0,0.12-0.01,0.23-0.03,0.32c-0.02,0.09-0.04,0.17-0.07,0.23
		c-0.03,0.06-0.06,0.1-0.11,0.13c-0.04,0.03-0.09,0.04-0.15,0.04h-5.19v4.16h4.45c0.05,0,0.1,0.02,0.15,0.05
		c0.04,0.03,0.08,0.07,0.11,0.13c0.03,0.05,0.05,0.13,0.07,0.23s0.02,0.21,0.02,0.34c0,0.12-0.01,0.23-0.02,0.32
		s-0.04,0.16-0.07,0.22c-0.03,0.05-0.07,0.09-0.11,0.12c-0.04,0.02-0.09,0.04-0.15,0.04h-4.45v4.75h5.26c0.05,0,0.1,0.01,0.15,0.04
		c0.04,0.03,0.08,0.07,0.12,0.13s0.06,0.13,0.07,0.23C225.88,136.96,225.89,137.07,225.89,137.21z"/>
	<path class="st0" d="M188.82,162.87c0,0.05-0.01,0.1-0.04,0.14s-0.08,0.07-0.14,0.1c-0.07,0.02-0.16,0.04-0.27,0.06
		c-0.11,0.02-0.25,0.03-0.42,0.03c-0.18,0-0.32-0.01-0.43-0.03c-0.11-0.02-0.2-0.04-0.27-0.06c-0.07-0.02-0.12-0.06-0.14-0.1
		s-0.04-0.09-0.04-0.14v-5.89h-6.04v5.89c0,0.05-0.01,0.1-0.04,0.14s-0.08,0.07-0.14,0.1c-0.07,0.02-0.16,0.04-0.27,0.06
		c-0.11,0.02-0.25,0.03-0.43,0.03c-0.16,0-0.3-0.01-0.42-0.03c-0.12-0.02-0.21-0.04-0.28-0.06c-0.07-0.02-0.12-0.06-0.14-0.1
		s-0.04-0.09-0.04-0.14v-12.74c0-0.05,0.01-0.1,0.04-0.14s0.08-0.07,0.14-0.1c0.07-0.02,0.16-0.04,0.28-0.06
		c0.12-0.02,0.26-0.03,0.42-0.03c0.17,0,0.31,0.01,0.43,0.03c0.11,0.02,0.2,0.04,0.27,0.06c0.07,0.02,0.12,0.06,0.14,0.1
		s0.04,0.09,0.04,0.14v5.31h6.04v-5.31c0-0.05,0.01-0.1,0.04-0.14s0.08-0.07,0.14-0.1c0.07-0.02,0.16-0.04,0.27-0.06
		c0.11-0.02,0.25-0.03,0.43-0.03c0.16,0,0.3,0.01,0.42,0.03c0.11,0.02,0.2,0.04,0.27,0.06c0.07,0.02,0.12,0.06,0.14,0.1
		s0.04,0.09,0.04,0.14V162.87z"/>
	<path class="st0" d="M199.73,162.41c0,0.12-0.01,0.23-0.02,0.32c-0.01,0.09-0.04,0.17-0.07,0.23s-0.07,0.11-0.12,0.13
		c-0.04,0.03-0.09,0.04-0.15,0.04h-6.37c-0.16,0-0.31-0.05-0.45-0.16c-0.14-0.11-0.21-0.29-0.21-0.56v-11.83
		c0-0.27,0.07-0.45,0.21-0.56s0.29-0.16,0.45-0.16h6.3c0.05,0,0.1,0.01,0.15,0.04s0.08,0.07,0.11,0.13s0.05,0.14,0.07,0.23
		c0.02,0.09,0.03,0.21,0.03,0.34c0,0.12-0.01,0.23-0.03,0.32c-0.02,0.09-0.04,0.17-0.07,0.23c-0.03,0.06-0.06,0.1-0.11,0.13
		s-0.09,0.04-0.15,0.04h-5.19v4.16h4.45c0.05,0,0.1,0.01,0.15,0.05c0.04,0.03,0.08,0.07,0.11,0.13c0.03,0.05,0.05,0.13,0.07,0.23
		s0.02,0.21,0.02,0.34c0,0.12-0.01,0.23-0.02,0.32s-0.04,0.16-0.07,0.22c-0.03,0.05-0.07,0.09-0.11,0.12
		c-0.04,0.02-0.09,0.04-0.15,0.04h-4.45v4.75h5.26c0.05,0,0.1,0.01,0.15,0.04c0.04,0.03,0.08,0.07,0.12,0.13
		c0.03,0.06,0.06,0.13,0.07,0.23C199.73,162.16,199.73,162.27,199.73,162.41z"/>
	<path class="st0" d="M211.45,162.87c0,0.05-0.01,0.1-0.03,0.14s-0.07,0.08-0.13,0.1s-0.16,0.05-0.29,0.06s-0.29,0.02-0.49,0.02
		c-0.18,0-0.32-0.01-0.44-0.02c-0.11-0.01-0.2-0.04-0.27-0.07c-0.07-0.03-0.12-0.07-0.16-0.13c-0.04-0.05-0.07-0.12-0.1-0.21
		l-1.22-3.13c-0.14-0.36-0.29-0.68-0.45-0.98c-0.15-0.3-0.34-0.55-0.55-0.77c-0.21-0.22-0.46-0.38-0.75-0.5
		c-0.29-0.12-0.63-0.18-1.04-0.18h-1.18v5.65c0,0.05-0.02,0.1-0.05,0.14c-0.03,0.04-0.08,0.07-0.14,0.1
		c-0.07,0.02-0.15,0.04-0.27,0.06c-0.11,0.02-0.25,0.03-0.43,0.03s-0.31-0.01-0.43-0.03c-0.11-0.02-0.2-0.04-0.27-0.06
		c-0.07-0.02-0.12-0.06-0.14-0.1s-0.04-0.09-0.04-0.14v-12.28c0-0.27,0.07-0.45,0.21-0.56c0.14-0.11,0.29-0.16,0.45-0.16h2.82
		c0.33,0,0.61,0.01,0.84,0.03c0.22,0.02,0.42,0.04,0.6,0.06c0.51,0.09,0.97,0.23,1.36,0.42c0.39,0.19,0.72,0.43,0.99,0.73
		s0.47,0.63,0.6,1.01c0.13,0.38,0.2,0.8,0.2,1.26c0,0.44-0.06,0.84-0.18,1.19c-0.12,0.35-0.29,0.66-0.52,0.93
		c-0.23,0.27-0.5,0.5-0.81,0.7s-0.67,0.37-1.06,0.5c0.22,0.1,0.42,0.22,0.59,0.36c0.18,0.15,0.34,0.32,0.5,0.53
		c0.15,0.21,0.3,0.44,0.44,0.71s0.27,0.57,0.41,0.9l1.19,2.92c0.1,0.25,0.16,0.42,0.18,0.52
		C211.44,162.74,211.45,162.82,211.45,162.87z M208.8,153.55c0-0.52-0.12-0.96-0.35-1.32c-0.23-0.36-0.62-0.62-1.17-0.77
		c-0.17-0.05-0.36-0.08-0.58-0.1c-0.22-0.02-0.5-0.03-0.85-0.03h-1.49v4.47h1.72c0.46,0,0.87-0.06,1.21-0.17
		c0.34-0.11,0.62-0.27,0.85-0.47c0.23-0.2,0.39-0.44,0.5-0.71C208.74,154.17,208.8,153.87,208.8,153.55z"/>
	<path class="st0" d="M221.39,162.41c0,0.12-0.01,0.23-0.02,0.32c-0.01,0.09-0.04,0.17-0.07,0.23s-0.07,0.11-0.12,0.13
		c-0.04,0.03-0.09,0.04-0.15,0.04h-6.37c-0.16,0-0.31-0.05-0.45-0.16c-0.14-0.11-0.21-0.29-0.21-0.56v-11.83
		c0-0.27,0.07-0.45,0.21-0.56c0.14-0.11,0.29-0.16,0.45-0.16h6.3c0.05,0,0.1,0.01,0.15,0.04c0.04,0.03,0.08,0.07,0.11,0.13
		s0.05,0.14,0.07,0.23c0.02,0.09,0.03,0.21,0.03,0.34c0,0.12-0.01,0.23-0.03,0.32c-0.02,0.09-0.04,0.17-0.07,0.23
		c-0.03,0.06-0.06,0.1-0.11,0.13c-0.04,0.03-0.09,0.04-0.15,0.04h-5.19v4.16h4.45c0.05,0,0.1,0.01,0.15,0.05
		c0.04,0.03,0.08,0.07,0.11,0.13c0.03,0.05,0.05,0.13,0.07,0.23s0.02,0.21,0.02,0.34c0,0.12-0.01,0.23-0.02,0.32
		s-0.04,0.16-0.07,0.22c-0.03,0.05-0.07,0.09-0.11,0.12c-0.04,0.02-0.09,0.04-0.15,0.04h-4.45v4.75h5.26c0.05,0,0.1,0.01,0.15,0.04
		c0.04,0.03,0.08,0.07,0.12,0.13c0.03,0.06,0.06,0.13,0.07,0.23C221.38,162.16,221.39,162.27,221.39,162.41z"/>
</g>
<path class="st0" d="M384,1c8.27,0,15,6.73,15,15v268c0,8.27-6.73,15-15,15H16c-8.27,0-15-6.73-15-15V16C1,7.73,7.73,1,16,1H384
	 M384,0H16C7.16,0,0,7.16,0,16v268c0,8.84,7.16,16,16,16h368c8.84,0,16-7.16,16-16V16C400,7.16,392.84,0,384,0L384,0z"/>
<path class="st0" d="M360.47,271.5h-13.51v-1h13.51V271.5z M334.92,271.5h-12.04v-1h12.04V271.5z M310.84,271.5h-12.04v-1h12.04
	V271.5z M286.75,271.5h-12.04v-1h12.04V271.5z M262.67,271.5h-12.04v-1h12.04V271.5z M238.59,271.5h-12.04v-1h12.04V271.5z
	 M214.51,271.5h-12.04v-1h12.04V271.5z M190.42,271.5h-12.04v-1h12.04V271.5z M166.34,271.5H154.3v-1h12.04V271.5z M142.26,271.5
	h-12.04v-1h12.04V271.5z M118.18,271.5h-12.04v-1h12.04V271.5z M94.1,271.5H82.05v-1H94.1V271.5z M70.01,271.5H57.97v-1h12.04V271.5
	z M45.93,271.5h-2.49c-3.58,0-6.5-2.92-6.5-6.5v-0.13h1V265c0,3.03,2.47,5.5,5.5,5.5h2.49V271.5z M365.5,262.32h-1v-12.04h1V262.32z
	 M37.94,252.83h-1v-12.04h1V252.83z M365.5,238.23h-1v-12.04h1V238.23z M37.94,228.75h-1v-12.04h1V228.75z M365.5,214.15h-1v-12.04
	h1V214.15z M37.94,204.67h-1v-12.04h1V204.67z M365.5,190.07h-1v-12.04h1V190.07z M37.94,180.59h-1v-12.04h1V180.59z M365.5,165.99
	h-1v-12.04h1V165.99z M37.94,156.5h-1v-12.04h1V156.5z M365.5,141.91h-1v-12.04h1V141.91z M37.94,132.42h-1v-12.04h1V132.42z
	 M365.5,117.82h-1v-12.04h1V117.82z M37.94,108.34h-1V96.3h1V108.34z M365.5,93.74h-1V81.7h1V93.74z M37.94,84.26h-1V72.22h1V84.26z
	 M365.5,69.66h-1V57.62h1V69.66z M37.94,60.17h-1V48.13h1V60.17z M365.5,45.58h-1V33.54h1V45.58z M37.94,36.09h-1v-2.65
	c0-3.56,2.9-6.48,6.46-6.5l0.01,1c-3.02,0.02-5.47,2.48-5.47,5.5V36.09z M356.48,27.94h-12.04v-1h12.04V27.94z M332.4,27.94h-12.04
	v-1h12.04V27.94z M308.31,27.94h-12.04v-1h12.04V27.94z M284.23,27.94h-12.04v-1h12.04V27.94z M260.15,27.94h-12.04v-1h12.04V27.94z
	 M236.07,27.94h-12.04v-1h12.04V27.94z M211.98,27.94h-12.04v-1h12.04V27.94z M187.9,27.94h-12.04v-1h12.04V27.94z M163.82,27.94
	h-12.04v-1h12.04V27.94z M139.74,27.94H127.7v-1h12.04V27.94z M115.66,27.94h-12.04v-1h12.04V27.94z M91.57,27.94H79.53v-1h12.04
	V27.94z M67.49,27.94H55.45v-1h12.04V27.94z"/>
</svg>
